<svg xmlns="http://www.w3.org/2000/svg" viewBox="0 0 32 32" width="32" height="32">
  <defs>
    <linearGradient id="faviconGradient" x1="0%" y1="0%" x2="100%" y2="100%">
      <stop offset="0%" style="stop-color:#2563eb"/>
      <stop offset="100%" style="stop-color:#1d4ed8"/>
    </linearGradient>
  </defs>
  
  <!-- Fondo circular -->
  <circle cx="16" cy="16" r="15" fill="url(#faviconGradient)"/>
  
  <!-- Borde sutil -->
  <circle cx="16" cy="16" r="14" fill="none" stroke="rgba(255,255,255,0.2)" stroke-width="0.5"/>
  
  <!-- Letra A simplificada -->
  <path d="M 8 24 L 12 10 L 14 10 L 18 24 L 16 24 L 15.2 21 L 10.8 21 L 10 24 Z M 11.5 18.5 L 14.5 18.5 L 13 13.5 Z" 
        fill="white" 
        font-weight="bold"/>
  
  <!-- Letra B simplificada -->
  <path d="M 19 10 L 19 24 L 25 24 Q 28 24 28 21.5 Q 28 19.5 26 19 Q 27.5 18.5 27.5 16.5 Q 27.5 10 24 10 Z M 21 18.5 L 21 12 L 23.5 12 Q 25.5 12 25.5 15.25 Q 25.5 18.5 23.5 18.5 Z M 21 22 L 21 20 L 24 20 Q 26 20 26 21 Q 26 22 24 22 Z" 
        fill="white" 
        font-weight="bold"/>
  
  <!-- Punto central decorativo -->
  <circle cx="16" cy="16" r="0.5" fill="rgba(255,255,255,0.6)"/>
</svg>