<svg xmlns="http://www.w3.org/2000/svg" viewBox="0 0 200 200" width="200" height="200">
  <defs>
    <!-- Gradiente principal morado/violeta -->
    <linearGradient id="primaryGradient" x1="0%" y1="0%" x2="100%" y2="100%">
      <stop offset="0%" style="stop-color:#8b5cf6;stop-opacity:1" />
      <stop offset="100%" style="stop-color:#7c3aed;stop-opacity:1" />
    </linearGradient>
    
    <!-- Gradiente secundario -->
    <linearGradient id="accentGradient" x1="0%" y1="0%" x2="100%" y2="100%">
      <stop offset="0%" style="stop-color:#a78bfa;stop-opacity:1" />
      <stop offset="100%" style="stop-color:#8b5cf6;stop-opacity:1" />
    </linearGradient>
    
    <!-- Sombra -->
    <filter id="dropShadow">
      <feDropShadow dx="0" dy="4" stdDeviation="8" flood-opacity="0.2"/>
    </filter>
    
    <!-- Efecto de brillo -->
    <filter id="glow">
      <feGaussianBlur stdDeviation="3" result="coloredBlur"/>
      <feMerge> 
        <feMergeNode in="coloredBlur"/>
        <feMergeNode in="SourceGraphic"/>
      </feMerge>
    </filter>
  </defs>
  
  <!-- Fondo circular con efecto tech -->
  <circle cx="100" cy="100" r="90" fill="url(#primaryGradient)" filter="url(#dropShadow)"/>
  
  <!-- Círculo interno decorativo -->
  <circle cx="100" cy="100" r="85" fill="none" stroke="rgba(255,255,255,0.2)" stroke-width="1"/>
  <circle cx="100" cy="100" r="75" fill="none" stroke="rgba(255,255,255,0.1)" stroke-width="0.5"/>
  
  <!-- Elementos tech decorativos -->
  <!-- Pequeños círculos en las esquinas -->
  <circle cx="45" cy="55" r="3" fill="rgba(255,255,255,0.3)"/>
  <circle cx="155" cy="55" r="2" fill="rgba(255,255,255,0.2)"/>
  <circle cx="45" cy="145" r="2" fill="rgba(255,255,255,0.2)"/>
  <circle cx="155" cy="145" r="3" fill="rgba(255,255,255,0.3)"/>
  
  <!-- Líneas tech conectoras -->
  <path d="M 55 65 L 75 85" stroke="rgba(255,255,255,0.2)" stroke-width="1" fill="none"/>
  <path d="M 145 65 L 125 85" stroke="rgba(255,255,255,0.2)" stroke-width="1" fill="none"/>
  <path d="M 55 135 L 75 115" stroke="rgba(255,255,255,0.2)" stroke-width="1" fill="none"/>
  <path d="M 145 135 L 125 115" stroke="rgba(255,255,255,0.2)" stroke-width="1" fill="none"/>
  
  <!-- Letra C principal con efecto -->
  <g filter="url(#glow)">
    <path d="M 130 70 Q 70 70 70 100 Q 70 130 130 130 L 130 115 Q 85 115 85 100 Q 85 85 130 85 Z" 
          fill="white" 
          font-family="Inter, system-ui, sans-serif" 
          font-weight="700"/>
  </g>
  
  <!-- Punto decorativo central -->
  <circle cx="100" cy="100" r="2" fill="rgba(255,255,255,0.8)"/>
  
  <!-- Arco decorativo superior -->
  <path d="M 70 40 Q 100 30 130 40" stroke="rgba(255,255,255,0.3)" stroke-width="2" fill="none"/>
  
  <!-- Arco decorativo inferior -->
  <path d="M 70 160 Q 100 170 130 160" stroke="rgba(255,255,255,0.3)" stroke-width="2" fill="none"/>
  
  <!-- Elementos hexagonales tech (sutiles) -->
  <polygon points="45,85 50,82 55,85 55,91 50,94 45,91" fill="rgba(255,255,255,0.1)" stroke="rgba(255,255,255,0.2)" stroke-width="0.5"/>
  <polygon points="145,115 150,112 155,115 155,121 150,124 145,121" fill="rgba(255,255,255,0.1)" stroke="rgba(255,255,255,0.2)" stroke-width="0.5"/>
  
  <!-- Pequeñas estrellas tech -->
  <path d="M 65,110 L 67,112 L 65,114 L 63,112 Z" fill="rgba(255,255,255,0.4)"/>
  <path d="M 135,85 L 137,87 L 135,89 L 133,87 Z" fill="rgba(255,255,255,0.4)"/>
</svg>