<svg xmlns="http://www.w3.org/2000/svg" viewBox="0 0 200 200" width="200" height="200">
  <defs>
    <!-- Gradiente principal naranja -->
    <linearGradient id="primaryGradient" x1="0%" y1="0%" x2="100%" y2="100%">
      <stop offset="0%" style="stop-color:#f59e0b;stop-opacity:1" />
      <stop offset="100%" style="stop-color:#d97706;stop-opacity:1" />
    </linearGradient>
    
    <!-- Gradiente secundario -->
    <linearGradient id="accentGradient" x1="0%" y1="0%" x2="100%" y2="100%">
      <stop offset="0%" style="stop-color:#fbbf24;stop-opacity:1" />
      <stop offset="100%" style="stop-color:#f59e0b;stop-opacity:1" />
    </linearGradient>
    
    <!-- Sombra -->
    <filter id="dropShadow">
      <feDropShadow dx="0" dy="4" stdDeviation="8" flood-opacity="0.2"/>
    </filter>
    
    <!-- Efecto de brillo -->
    <filter id="glow">
      <feGaussianBlur stdDeviation="3" result="coloredBlur"/>
      <feMerge> 
        <feMergeNode in="coloredBlur"/>
        <feMergeNode in="SourceGraphic"/>
      </feMerge>
    </filter>
  </defs>
  
  <!-- Fondo circular principal -->
  <circle cx="100" cy="100" r="90" fill="url(#primaryGradient)" filter="url(#dropShadow)"/>
  
  <!-- Círculos decorativos -->
  <circle cx="100" cy="100" r="85" fill="none" stroke="rgba(255,255,255,0.2)" stroke-width="1"/>
  <circle cx="100" cy="100" r="75" fill="none" stroke="rgba(255,255,255,0.1)" stroke-width="0.5"/>
  
  <!-- Elementos tech decorativos -->
  <!-- Círculos en esquinas -->
  <circle cx="50" cy="60" r="4" fill="rgba(255,255,255,0.3)"/>
  <circle cx="150" cy="60" r="3" fill="rgba(255,255,255,0.2)"/>
  <circle cx="50" cy="140" r="3" fill="rgba(255,255,255,0.2)"/>
  <circle cx="150" cy="140" r="4" fill="rgba(255,255,255,0.3)"/>
  
  <!-- Líneas tech conectoras -->
  <path d="M 60 70 L 80 90" stroke="rgba(255,255,255,0.2)" stroke-width="1.5" fill="none"/>
  <path d="M 140 70 L 120 90" stroke="rgba(255,255,255,0.2)" stroke-width="1.5" fill="none"/>
  <path d="M 60 130 L 80 110" stroke="rgba(255,255,255,0.2)" stroke-width="1.5" fill="none"/>
  <path d="M 140 130 L 120 110" stroke="rgba(255,255,255,0.2)" stroke-width="1.5" fill="none"/>
  
  <!-- Letra J principal con efecto -->
  <g filter="url(#glow)">
    <path d="M 70 60 L 130 60 L 130 75 L 115 75 L 115 125 Q 115 150 90 150 Q 65 150 65 125 L 80 125 Q 80 135 90 135 Q 100 135 100 125 L 100 75 L 70 60 Z" 
          fill="white" 
          font-family="Inter, system-ui, sans-serif" 
          font-weight="700"/>
  </g>
  
  <!-- Punto decorativo central -->
  <circle cx="100" cy="100" r="3" fill="rgba(255,255,255,0.8)"/>
  
  <!-- Arco decorativo superior -->
  <path d="M 75 45 Q 100 35 125 45" stroke="rgba(255,255,255,0.3)" stroke-width="2" fill="none"/>
  
  <!-- Arco decorativo inferior -->
  <path d="M 75 155 Q 100 165 125 155" stroke="rgba(255,255,255,0.3)" stroke-width="2" fill="none"/>
  
  <!-- Elementos hexagonales tech (sutiles) -->
  <polygon points="45,85 50,82 55,85 55,91 50,94 45,91" fill="rgba(255,255,255,0.1)" stroke="rgba(255,255,255,0.2)" stroke-width="0.5"/>
  <polygon points="145,115 150,112 155,115 155,121 150,124 145,121" fill="rgba(255,255,255,0.1)" stroke="rgba(255,255,255,0.2)" stroke-width="0.5"/>
  
  <!-- Pequeñas estrellas tech -->
  <path d="M 65,110 L 67,112 L 65,114 L 63,112 Z" fill="rgba(255,255,255,0.4)"/>
  <path d="M 135,85 L 137,87 L 135,89 L 133,87 Z" fill="rgba(255,255,255,0.4)"/>
</svg>